<?xml version="1.0" encoding="utf-8"?><svg viewBox="0 0 32 32" xmlns="http://www.w3.org/2000/svg" xmlns:xlink="http://www.w3.org/1999/xlink"><style>:root>svg{display:none}:root>svg:target{display:block}</style><svg viewBox="0 0 24 24" id="arrow" xmlns="http://www.w3.org/2000/svg"><path d="M9.4 17.293a1 1 0 001.415 1.414l4.585-4.586a3 3 0 000-4.242l-4.589-4.586a1 1 0 00-1.41 1.414l4.585 4.586a1 1 0 010 1.414L9.4 17.293z"/></svg><svg viewBox="0 0 32 32" id="arrow-next" xmlns="http://www.w3.org/2000/svg"><g clip-path="url(#ba)"><path d="M8.391 29.724a1.333 1.333 0 101.886 1.885l10.896-10.896a6.673 6.673 0 000-9.426L10.277.39A1.333 1.333 0 008.39 2.276l10.896 10.896a4 4 0 010 5.656L8.391 29.724z"/></g><defs><clipPath id="ba"><path d="M0 0h32v32H0z"/></clipPath></defs></svg><svg viewBox="0 0 32 32" id="arrow-prev" xmlns="http://www.w3.org/2000/svg"><path d="M23.839 2.276A1.333 1.333 0 0021.953.391L11.057 11.287a6.667 6.667 0 000 9.426L21.953 31.61a1.333 1.333 0 001.886-1.885L12.943 18.828a4 4 0 010-5.656L23.839 2.276z"/></svg></svg>